<svg xmlns="http://www.w3.org/2000/svg" width="70" height="24" viewBox="0 0 70 24" fill="none">
<path d="M18.4585 10.3453V9.82294C18.4587 9.18269 18.3327 8.54868 18.0877 7.95714C17.8428 7.3656 17.4837 6.82811 17.031 6.37539C16.5782 5.92266 16.0407 5.56355 15.4492 5.3186C14.8577 5.07364 14.2237 4.94763 13.5834 4.94775H4.87519C3.58266 4.94921 2.34348 5.46332 1.42952 6.37727C0.515562 7.29123 0.00145906 8.53041 0 9.82294V14.177C0.00145906 15.4696 0.515562 16.7087 1.42952 17.6227C2.34348 18.5366 3.58266 19.0507 4.87519 19.0522H13.5821C14.8752 19.0522 16.1153 18.5386 17.0298 17.6243C17.9442 16.7101 18.4582 15.4701 18.4585 14.177V13.6546H10.8826V14.177C10.8838 14.7973 10.7336 15.4085 10.4452 15.9576C10.1568 16.5068 9.73882 16.9773 9.22752 17.3285C9.03763 17.1971 8.85987 17.049 8.69635 16.8859L8.69623 16.8856C8.0247 16.2179 7.62655 15.3236 7.57971 14.3778C8.1572 13.7203 8.47569 12.8751 8.47571 12.0001C8.47574 11.125 8.1573 10.2798 7.57984 9.62233C7.6105 9.03719 7.77499 8.46689 8.06065 7.9553C8.34631 7.44371 8.74553 7.00448 9.22758 6.67139C9.7389 7.02264 10.1569 7.49318 10.4455 8.04231C10.7341 8.59143 10.8846 9.2026 10.8839 9.82294V10.3453H18.4585ZM10.4997 17.6246C11.2891 16.8397 11.7837 15.8065 11.8999 14.6994H17.3787C17.2518 15.6162 16.7975 16.4561 16.0997 17.0642C15.4018 17.6722 14.5076 18.0072 13.5821 18.0074H10.069C10.22 17.8884 10.3638 17.7606 10.4997 17.6246V17.6246ZM6.82117 10.3451C7.21463 10.8065 7.43081 11.393 7.43095 11.9994C7.43108 12.6058 7.21516 13.1924 6.82191 13.654H1.04477V10.3451H6.82117ZM7.95754 17.6246C8.02996 17.697 8.10479 17.7672 8.18205 17.8353C8.15311 17.8442 8.12425 17.8534 8.0951 17.8616C8.06226 17.8709 8.02931 17.8798 7.99624 17.8882C7.94349 17.9016 7.89052 17.9141 7.8372 17.9253C7.80299 17.9324 7.76853 17.9386 7.73409 17.9448C7.68299 17.954 7.63184 17.963 7.58034 17.9702C7.53589 17.9763 7.49107 17.9806 7.44627 17.9852C7.40428 17.9895 7.36241 17.9946 7.32022 17.9976C7.23144 18.0036 7.14219 18.0074 7.05223 18.0074H4.87519C3.95011 18.0062 3.05665 17.6706 2.35946 17.0626C1.66226 16.4546 1.2083 15.6151 1.08123 14.6988H6.55801C6.67391 15.806 7.16822 16.8394 7.95754 17.6246V17.6246ZM6.55785 9.30029H1.08135C1.2086 8.38416 1.66263 7.54487 2.35979 6.93704C3.05694 6.3292 3.95026 5.99376 4.87519 5.99251H7.05223C7.14204 5.99251 7.23116 5.9963 7.31978 6.00233C7.36318 6.00536 7.40627 6.01062 7.44948 6.01515C7.49276 6.01954 7.53609 6.02372 7.57905 6.02959C7.63256 6.03702 7.68573 6.04633 7.73881 6.05602C7.77057 6.06176 7.80235 6.0674 7.83391 6.07397C7.89019 6.08567 7.94613 6.09891 8.0018 6.11316C8.03079 6.12055 8.05968 6.12832 8.0885 6.13647C8.11962 6.1452 8.1504 6.15508 8.18128 6.16462C7.26716 6.97013 6.68796 8.08887 6.55785 9.30029ZM10.4998 6.37538C10.364 6.23941 10.2202 6.11157 10.0693 5.99251H13.5834C14.5089 5.99239 15.4032 6.32735 16.1008 6.93546C16.7985 7.54357 17.2524 8.38371 17.3787 9.30056H11.9012C11.785 8.19318 11.29 7.1599 10.4998 6.37538V6.37538Z" fill="#5147DD"/>
<path d="M31.3292 19.0523C30.3733 19.0609 29.4256 18.8753 28.5436 18.5068C27.7122 18.1643 26.9581 17.6585 26.3256 17.0194C25.6932 16.3803 25.1954 15.6208 24.8616 14.7859C24.508 13.9136 24.3293 12.9803 24.3356 12.0391V12.0001C24.3286 11.0619 24.5074 10.1317 24.8616 9.26293C25.201 8.42961 25.6969 7.66909 26.3227 7.02256C26.9597 6.37056 27.7217 5.85375 28.563 5.50305C29.4765 5.12441 30.4574 4.93551 31.4461 4.94783C32.031 4.9432 32.615 4.99541 33.1898 5.10374C33.6805 5.19718 34.1602 5.34078 34.6216 5.53229C35.0407 5.70905 35.4392 5.93118 35.81 6.1947C36.1706 6.45204 36.5095 6.73871 36.823 7.05179L34.9139 9.25319C34.426 8.80379 33.8787 8.4236 33.2872 8.12327C32.7072 7.84435 32.0702 7.7043 31.4267 7.71421C30.8798 7.70914 30.3382 7.82208 29.839 8.04532C29.3609 8.2597 28.933 8.57162 28.5826 8.96107C28.2278 9.3574 27.9502 9.81658 27.7642 10.3149C27.5672 10.8412 27.4682 11.3991 27.4721 11.9611V12.0001C27.4687 12.5652 27.5677 13.1262 27.7642 13.656C27.9477 14.1564 28.2218 14.6186 28.5728 15.0196C28.9296 15.4233 29.3692 15.7454 29.8617 15.9639C30.3541 16.1825 30.8879 16.2923 31.4267 16.286C32.111 16.3073 32.7901 16.1601 33.4042 15.8574C33.9883 15.5391 34.5284 15.1462 35.0112 14.6885L36.9204 16.6171C36.5828 16.9817 36.2181 17.3204 35.8295 17.6301C35.4473 17.9322 35.0323 18.1904 34.5924 18.3997C34.1236 18.6209 33.6297 18.7844 33.1216 18.8867C32.5313 19.0025 31.9307 19.058 31.3292 19.0523Z" fill="#1C2024"/>
<path d="M38.8295 5.18107H41.8295V10.5774H47.3622V5.18107H50.3623V18.8178H47.3622V13.3436H41.8295V18.8178H38.8295V5.18107Z" fill="#1C2024"/>
<path d="M53.2835 5.18107H56.2837V18.8178H53.2835V5.18107Z" fill="#1C2024"/>
<path d="M59.2064 5.18138H64.7781C65.5227 5.16972 66.2638 5.28498 66.9696 5.52223C67.5755 5.72779 68.1326 6.05605 68.606 6.48651C69.0542 6.90259 69.4065 7.41116 69.6385 7.97698C69.8848 8.58632 70.0074 9.2386 69.9991 9.8958V9.93477C70.0145 10.653 69.868 11.3654 69.5703 12.0192C69.2962 12.602 68.8932 13.1149 68.3918 13.5193C67.8719 13.9323 67.2763 14.24 66.6385 14.4251C65.9396 14.6308 65.2143 14.7326 64.4858 14.7271H62.2065V18.8181H59.2064V5.18138ZM64.5832 12.0582C65.3363 12.0582 65.9208 11.8602 66.3366 11.464C66.5384 11.2767 66.6983 11.0489 66.8057 10.7954C66.9131 10.5419 66.9657 10.2685 66.9598 9.99324V9.95426C66.9787 9.66462 66.9295 9.3746 66.8162 9.10737C66.7029 8.84014 66.5287 8.60313 66.3074 8.41527C65.7918 8.03935 65.1619 7.8535 64.5248 7.88928H62.2065V12.0582H64.5832Z" fill="#1C2024"/>

</svg>